<?xml version="1.0" encoding="UTF-8"?>
<svg id="_レイヤー_2" data-name="レイヤー 2" xmlns="http://www.w3.org/2000/svg" viewBox="0 0 432.43 71.43">
  <defs>
    <style>
      .cls-1 {
        fill: #262626;
      }

      .cls-1, .cls-2, .cls-3, .cls-4 {
        stroke-width: 0px;
      }

      .cls-2 {
        fill: #fff;
      }

      .cls-3 {
        fill: #5eb02f;
      }

      .cls-4 {
        fill: #302c2c;
      }
    </style>
  </defs>
  <g id="_ロゴ" data-name="ロゴ">
    <path class="cls-3" d="m56.51,20.8c-3.74,0-8.38,3.08-12.32,6.44,3.36-3.94,6.44-8.58,6.44-12.32,0-8.24-6.68-14.92-14.92-14.92s-14.92,6.68-14.92,14.92c0,3.74,3.08,8.37,6.44,12.32-3.94-3.36-8.58-6.44-12.32-6.44-8.24,0-14.92,6.68-14.92,14.92s6.68,14.92,14.92,14.92c1.87,0,3.97-.78,6.1-1.97-1.14,1.13-2.43,2.11-3.88,2.87-4.34,2.26-9.43,2.34-13.97.22-.81-.38-1.78-.03-2.16.79-.38.81-.03,1.78.79,2.16,2.63,1.23,5.42,1.84,8.19,1.84,2.98,0,5.94-.71,8.66-2.12,1.13-.59,2.19-1.29,3.18-2.09-.64,1.46-1.02,2.88-1.02,4.19,0,8.24,6.68,14.91,14.92,14.91s14.92-6.68,14.92-14.91c0-3.75-3.08-8.38-6.44-12.32,3.94,3.36,8.58,6.44,12.32,6.44,8.24,0,14.92-6.68,14.92-14.92s-6.68-14.92-14.92-14.92Z"/>
    <g>
      <path class="cls-2" d="m31.1,8.8h3.12l4.07,5.99v-5.99h3.15v10.82h-3.15l-4.05-5.94v5.94h-3.14v-10.82Z"/>
      <path class="cls-2" d="m30.66,28.98c0-1.77.49-3.14,1.48-4.13s2.36-1.48,4.11-1.48,3.19.48,4.16,1.45c.97.97,1.46,2.32,1.46,4.06,0,1.27-.21,2.3-.64,3.11-.43.81-1.04,1.44-1.85,1.89-.8.45-1.81.68-3.01.68s-2.23-.19-3.03-.58c-.8-.39-1.45-1-1.95-1.85-.5-.84-.75-1.89-.75-3.16Zm3.34.01c0,1.09.2,1.88.61,2.36.41.48.96.72,1.66.72s1.27-.23,1.67-.7c.39-.47.59-1.31.59-2.52,0-1.02-.21-1.76-.62-2.23-.41-.47-.97-.71-1.67-.71s-1.22.24-1.62.72c-.41.48-.61,1.27-.61,2.37Z"/>
      <path class="cls-2" d="m37.73,47.36h-3.8l-.53,1.79h-3.41l4.07-10.82h3.65l4.07,10.82h-3.5l-.54-1.79Zm-.69-2.34l-1.2-3.89-1.18,3.89h2.38Z"/>
      <path class="cls-2" d="m31.12,63.9v-10.82h5.57c1.03,0,1.82.09,2.37.27.55.18.99.51,1.32.99s.5,1.06.5,1.75c0,.6-.13,1.12-.38,1.55-.26.43-.61.79-1.06,1.06-.29.17-.68.32-1.17.43.4.13.69.27.87.4.12.09.3.28.54.57s.39.52.47.67l1.62,3.14h-3.78l-1.79-3.31c-.23-.43-.43-.71-.61-.84-.24-.17-.52-.25-.82-.25h-.29v4.39h-3.36Zm3.36-6.44h1.41c.15,0,.45-.05.88-.15.22-.04.4-.16.54-.34.14-.18.21-.39.21-.63,0-.35-.11-.62-.33-.8s-.64-.28-1.25-.28h-1.47v2.2Z"/>
    </g>
    <g>
      <path class="cls-4" d="m45.45,11.55c0,.48-.35.86-.91.86s-.88-.38-.88-.86.36-.87.89-.87.88.38.89.87Zm-1.7,8.08v-6.31h1.61v6.31h-1.61Z"/>
      <path class="cls-4" d="m47.4,10.42h1.61v3.76h.03c.2-.3.45-.54.79-.73.31-.18.69-.29,1.09-.29,1.08,0,2.2.71,2.2,2.73v3.72h-1.59v-3.54c0-.92-.34-1.61-1.22-1.61-.62,0-1.06.42-1.23.89-.05.13-.06.3-.06.48v3.77h-1.61v-9.2Z"/>
      <path class="cls-4" d="m61.13,16.41c0,2.32-1.63,3.36-3.24,3.36-1.79,0-3.16-1.23-3.16-3.25s1.36-3.34,3.27-3.34,3.13,1.32,3.13,3.24Zm-4.76.07c0,1.22.6,2.14,1.57,2.14.91,0,1.54-.89,1.54-2.17,0-.98-.44-2.11-1.53-2.11s-1.58,1.09-1.58,2.14Z"/>
      <path class="cls-4" d="m62.77,15.19c0-.72-.01-1.33-.05-1.88h1.4l.08.95h.04c.27-.49.96-1.09,2.01-1.09,1.1,0,2.24.71,2.24,2.71v3.75h-1.6v-3.56c0-.91-.34-1.59-1.21-1.59-.63,0-1.08.45-1.25.93-.05.14-.06.34-.06.52v3.71h-1.61v-4.43Z"/>
      <path class="cls-4" d="m44.14,34.39v-5.12h-.86v-1.19h.86v-.27c0-.82.22-1.63.76-2.15.47-.44,1.1-.61,1.65-.61.43,0,.77.06,1.03.16l-.12,1.23c-.17-.06-.39-.12-.68-.12-.79,0-1.06.66-1.06,1.44v.32h1.39v1.19h-1.37v5.12h-1.59Z"/>
      <path class="cls-4" d="m48.75,34.39v-5.12h-.86v-1.19h.86v-.27c0-.82.22-1.63.77-2.15.47-.44,1.1-.61,1.64-.61.43,0,.77.06,1.03.16l-.12,1.23c-.17-.06-.39-.12-.67-.12-.79,0-1.06.66-1.06,1.44v.32h1.39v1.19h-1.37v5.12h-1.59Z"/>
      <path class="cls-4" d="m54.62,26.31c0,.48-.35.86-.91.86s-.88-.38-.88-.86.36-.87.89-.87.88.38.89.87Zm-1.7,8.08v-6.31h1.61v6.31h-1.61Z"/>
      <path class="cls-4" d="m61.21,34.19c-.34.16-1,.32-1.79.32-1.97,0-3.25-1.26-3.25-3.21s1.3-3.37,3.51-3.37c.58,0,1.18.13,1.54.3l-.29,1.19c-.26-.12-.64-.25-1.21-.25-1.22,0-1.95.89-1.93,2.05,0,1.3.84,2.04,1.93,2.04.56,0,.95-.12,1.26-.25l.22,1.18Z"/>
      <path class="cls-4" d="m63.84,31.68c.04,1.14.93,1.63,1.94,1.63.74,0,1.27-.1,1.75-.29l.23,1.1c-.54.22-1.3.39-2.21.39-2.05,0-3.25-1.26-3.25-3.19,0-1.75,1.06-3.4,3.09-3.4s2.72,1.69,2.72,3.07c0,.3-.03.53-.05.68h-4.23Zm2.77-1.12c.01-.58-.25-1.54-1.31-1.54-.99,0-1.4.89-1.46,1.54h2.77Z"/>
      <path class="cls-4" d="m49.41,47.25c0,.75.03,1.38.05,1.89h-1.4l-.08-.96h-.03c-.27.45-.9,1.1-2.02,1.1s-2.2-.69-2.2-2.75v-3.71h1.59v3.44c0,1.05.34,1.72,1.18,1.72.63,0,1.05-.45,1.22-.86.05-.14.09-.31.09-.49v-3.81h1.59v4.42Z"/>
      <path class="cls-4" d="m53.28,41.03v1.8h1.52v1.19h-1.52v2.79c0,.76.21,1.17.82,1.17.27,0,.48-.04.62-.08l.03,1.22c-.23.09-.65.16-1.15.16-.58,0-1.08-.2-1.37-.52-.34-.36-.49-.94-.49-1.76v-2.97h-.91v-1.19h.91v-1.43l1.56-.38Z"/>
      <path class="cls-4" d="m62.33,45.93c0,2.32-1.63,3.36-3.24,3.36-1.79,0-3.16-1.23-3.16-3.25s1.36-3.35,3.27-3.35,3.14,1.32,3.14,3.24Zm-4.76.06c0,1.22.6,2.14,1.57,2.14.91,0,1.54-.89,1.54-2.17,0-.98-.44-2.11-1.53-2.11s-1.58,1.09-1.58,2.14Z"/>
      <path class="cls-4" d="m63.96,44.71c0-.72-.01-1.33-.05-1.88h1.37l.07.93h.04c.31-.49.88-1.08,1.95-1.08.83,0,1.48.47,1.75,1.17h.03c.22-.35.48-.61.78-.79.35-.25.75-.38,1.27-.38,1.05,0,2.11.71,2.11,2.73v3.72h-1.56v-3.49c0-1.05-.36-1.67-1.13-1.67-.54,0-.95.39-1.12.84-.04.16-.08.35-.08.53v3.79h-1.55v-3.66c0-.88-.35-1.5-1.09-1.5-.6,0-1,.47-1.14.91-.06.16-.09.34-.09.52v3.73h-1.55v-4.44Z"/>
      <path class="cls-4" d="m78.83,49.15l-.11-.7h-.04c-.39.49-1.05.84-1.87.84-1.27,0-1.98-.92-1.98-1.88,0-1.59,1.41-2.4,3.75-2.38v-.1c0-.42-.17-1.1-1.28-1.1-.62,0-1.27.19-1.7.47l-.31-1.04c.47-.29,1.29-.56,2.28-.56,2.02,0,2.61,1.28,2.61,2.66v2.28c0,.57.03,1.13.09,1.52h-1.44Zm-.21-3.09c-1.13-.03-2.2.22-2.2,1.18,0,.62.4.91.91.91.63,0,1.1-.41,1.24-.87.04-.12.05-.25.05-.35v-.87Z"/>
      <path class="cls-4" d="m84.01,41.03v1.8h1.52v1.19h-1.52v2.79c0,.76.21,1.17.82,1.17.27,0,.48-.04.62-.08l.03,1.22c-.23.09-.65.16-1.15.16-.58,0-1.08-.2-1.37-.52-.34-.36-.49-.94-.49-1.76v-2.97h-.91v-1.19h.91v-1.43l1.55-.38Z"/>
      <path class="cls-4" d="m88.75,41.07c0,.48-.35.86-.91.86s-.88-.38-.88-.86.36-.87.89-.87.88.38.89.87Zm-1.7,8.08v-6.31h1.61v6.31h-1.61Z"/>
      <path class="cls-4" d="m96.7,45.93c0,2.32-1.63,3.36-3.24,3.36-1.79,0-3.16-1.23-3.16-3.25s1.36-3.35,3.27-3.35,3.14,1.32,3.14,3.24Zm-4.76.06c0,1.22.6,2.14,1.57,2.14.91,0,1.54-.89,1.54-2.17,0-.98-.44-2.11-1.53-2.11s-1.58,1.09-1.58,2.14Z"/>
      <path class="cls-4" d="m98.33,44.71c0-.72-.01-1.33-.05-1.88h1.4l.08.95h.04c.27-.49.96-1.09,2.01-1.09s2.24.71,2.24,2.71v3.75h-1.6v-3.56c0-.91-.34-1.6-1.21-1.6-.63,0-1.08.45-1.24.93-.05.14-.06.34-.06.52v3.71h-1.61v-4.44Z"/>
      <path class="cls-4" d="m44.81,61.2c.04,1.14.93,1.63,1.95,1.63.74,0,1.27-.1,1.75-.29l.23,1.1c-.54.22-1.3.39-2.2.39-2.05,0-3.26-1.26-3.26-3.19,0-1.75,1.06-3.4,3.09-3.4s2.72,1.69,2.72,3.07c0,.3-.03.53-.05.67h-4.23Zm2.77-1.12c.01-.58-.25-1.54-1.31-1.54-.99,0-1.4.89-1.46,1.54h2.77Z"/>
      <path class="cls-4" d="m50.56,62.44c.36.22,1.05.45,1.62.45.7,0,1.01-.29,1.01-.7s-.26-.65-1.04-.92c-1.23-.43-1.75-1.1-1.74-1.84,0-1.12.92-1.98,2.39-1.98.7,0,1.31.18,1.67.38l-.31,1.13c-.27-.15-.78-.36-1.34-.36s-.88.27-.88.66.3.6,1.1.88c1.14.42,1.67,1,1.68,1.93,0,1.14-.89,1.97-2.57,1.97-.76,0-1.45-.18-1.92-.44l.31-1.15Z"/>
      <path class="cls-4" d="m57.3,61.2c.04,1.14.93,1.63,1.95,1.63.74,0,1.27-.1,1.75-.29l.23,1.1c-.54.22-1.29.39-2.2.39-2.05,0-3.25-1.26-3.25-3.19,0-1.75,1.06-3.4,3.08-3.4s2.72,1.69,2.72,3.07c0,.3-.03.53-.05.67h-4.23Zm2.78-1.12c.01-.58-.25-1.54-1.31-1.54-.98,0-1.4.89-1.46,1.54h2.78Z"/>
      <path class="cls-4" d="m66.54,63.91l-.11-.7h-.04c-.39.49-1.05.84-1.87.84-1.27,0-1.98-.92-1.98-1.88,0-1.59,1.41-2.4,3.75-2.38v-.1c0-.42-.17-1.1-1.28-1.1-.62,0-1.27.19-1.7.47l-.31-1.04c.46-.29,1.28-.56,2.28-.56,2.02,0,2.61,1.28,2.61,2.66v2.28c0,.57.03,1.13.09,1.52h-1.44Zm-.21-3.09c-1.13-.03-2.2.22-2.2,1.18,0,.62.4.91.91.91.63,0,1.1-.42,1.24-.87.04-.12.05-.25.05-.35v-.87Z"/>
      <path class="cls-4" d="m69.7,59.63c0-.86-.01-1.46-.05-2.04h1.39l.05,1.21h.05c.31-.89,1.05-1.35,1.72-1.35.16,0,.25.01.38.04v1.5c-.13-.03-.27-.05-.47-.05-.77,0-1.28.49-1.43,1.21-.03.14-.05.31-.05.49v3.27h-1.59v-4.28Z"/>
      <path class="cls-4" d="m79.09,63.71c-.34.16-1,.32-1.79.32-1.97,0-3.25-1.26-3.25-3.21s1.3-3.37,3.51-3.37c.58,0,1.18.13,1.54.3l-.29,1.19c-.26-.12-.63-.24-1.2-.24-1.22,0-1.94.89-1.93,2.05,0,1.3.84,2.04,1.93,2.04.56,0,.95-.12,1.26-.25l.22,1.18Z"/>
      <path class="cls-4" d="m80.39,54.7h1.61v3.76h.03c.2-.3.46-.54.79-.73.31-.18.69-.29,1.09-.29,1.08,0,2.21.71,2.21,2.74v3.72h-1.6v-3.54c0-.92-.34-1.61-1.22-1.61-.62,0-1.06.41-1.23.89-.05.13-.06.3-.06.48v3.77h-1.61v-9.2Z"/>
    </g>
    <g>
      <path class="cls-1" d="m137.34,64.51v-2.05h-18.21v2.05h-4.54v-31.57h27.28v31.57h-4.54Zm0-27.07h-18.21v7.74h18.21v-7.74Zm0,12.2h-18.21v8.28h18.21v-8.28Z"/>
      <path class="cls-1" d="m178.02,60.23c-1.87-1.51-4.21-3.74-5.8-5.65v3.46h-5.69v6.48h-4.72v-6.48h-5.65v-2.99c-1.51,1.76-3.74,3.78-5.62,5.22l-3.13-4.07c5.62-3.46,11.12-9.83,13-14.07h-11.16v-4.5h12.56v-5.51h4.72v5.51h12.67v4.5h-11.52c2.52,4.39,8.32,10.69,13.35,13.89l-3.02,4.21Zm-16.2-13.86c-1.12,2.34-2.63,4.82-4.43,7.16h4.43v-7.16Zm4.72.04v7.13h4.82c-1.98-2.45-3.67-4.86-4.82-7.13Z"/>
      <path class="cls-1" d="m207.97,43.78c.07,5.26.22,11.16.32,14.54.11,3.6-1.44,5.25-8.13,5.58l-1.62-5.44c4.5.58,5.11.22,5.08-1.73-.11-3.46-.11-7.38-.14-11.3-3.31,5.76-7.59,10.73-14.72,15.23l-4.72-3.46c7.27-3.49,12.45-8.78,14.9-13.43-4.93,0-9.86.07-12.99.14l-.11-4.5c3.89.11,10.91.14,17.53.11-.07-2.41-.14-4.72-.29-6.66l4.82.04c0,1.48,0,3.89.04,6.62,2.91-.04,5.72-.07,7.85-.11v4.46c-1.98-.04-4.72-.04-7.81-.11Z"/>
      <path class="cls-1" d="m221.04,50.37v-4.86c7.42.11,22.64.07,30.45,0v4.86c-7.78-.18-23.15-.18-30.45,0Z"/>
      <path class="cls-1" d="m256.97,60.45v-4.5c2.59.07,7.45.11,12.71.11.04-4.79.18-10.37.04-15.08-3.89,0-7.67.04-9.83.11v-4.5c5.94.22,18.5.18,24.55,0v4.5c-2.2-.07-5.94-.11-9.9-.11-.14,4.57-.11,10.15,0,15.08,5.18,0,10.26-.04,12.92-.11v4.5c-6.55-.14-23.61-.14-30.49,0Z"/>
      <path class="cls-1" d="m293.04,50.37v-4.86c7.42.11,22.64.07,30.45,0v4.86c-7.78-.18-23.15-.18-30.45,0Z"/>
      <path class="cls-1" d="m357.66,49.68v14.83h-4.28v-14.83h-4.14c-.22,5.87-1.22,11.34-4.9,14.79l-3.28-3.38v1.44h-6.12v1.98h-4.28v-12.6c-.72,1.33-1.37,2.09-1.37,2.09l-1.26-5.87s3.56-3.85,4.28-11.01h-3.42v-4.14h12.67v4.14h-4.9c-.32,2.16-.9,4.46-1.58,6.26h5.98v17.1c2.81-2.66,3.67-5.97,3.89-10.8h-2.92v-4.46h2.99v-7.59h-2.38v-4.46h17.1v4.46h-2.09v7.59h2.77v4.46h-2.77Zm-20.62-2.16h-2.3v10.87h2.3v-10.87Zm16.34-9.9h-4.07v7.59h4.07v-7.59Z"/>
      <path class="cls-1" d="m391.68,63.79h-4.03c-2.3,0-3.78-.25-3.49-3.02l.97-7.7h-6.16c-1.22,5.44-4.39,9.36-12.42,11.45l-2.56-4.1c6.41-1.44,9.14-3.38,10.44-7.34h-7.99v-4.32h8.64l.11-3.64h4.39l-.11,3.64h10.51l-1.12,10.26c0,.47.29.47.68.47h1.66c.76,0,1.08-.07,1.62-5.9l3.96,2.23c-.79,6.59-1.8,7.99-5.11,7.99Zm.07-23.18l2.52.86c-1.01,4.54-1.58,5.22-4.82,5.22h-5.26c-2.16,0-3.13-.22-3.13-2.09v-5.54h4.36v3.35c0,.43.22.43.76.43h1.8c1.48,0,1.73-.43,2.02-2.88l1.26.43v-2.16h-15.84l3.74,1.3c-1.58,4.43-5.83,7.13-11.19,8.06l-2.41-4.39c6.26-.61,8.24-2.3,9.39-4.97h-5.72v3.24h-4.32v-7.42h12.74v-1.94h4.86v1.94h13.07v6.55h-3.82Z"/>
      <path class="cls-1" d="m405.79,52.02c-.22,4.39-.65,7.96-2.34,12.49l-3.53-4.28c1.3-3.31,1.66-8.31,1.66-16.13v-4.75h13.46v12.67h-9.25Zm-4.75-14.79v-4.18h14.79v4.18h-14.79Zm9.68,6.12h-4.79v4.64h4.79v-4.64Zm18.47,3.53v17.64h-4.32v-17.64h-3.6c-.36,7.81-1.51,13.61-3.82,17.64l-3.56-4.07c2.16-3.92,3.06-9,3.06-18.36v-8.24s8.93,0,13.14-1.73l2.2,4.32c-4.75,1.33-10.91,1.58-10.91,1.58v4.54h11.05v4.32h-3.24Z"/>
    </g>
    <g>
      <path class="cls-1" d="m118.83,15.83s-.98-1.51-1.42-2.78v13.08h-2.28v-12.1c-.31,1.78-.89,3.82-2.02,5.69l-1.68-2.04c1.99-2.54,3.07-5.83,3.36-6.96h-2.78v-2.16h3.12v-4.03h2.28v4.03h2.66v2.16h-2.42c.91,1.7,2.52,3.02,2.52,3.02l-1.34,2.09Zm12.53,8.3c-1.92-2.33-3.24-5.09-3.82-7.06v9.05h-2.28v-9.1c-.77,2.14-2.38,5.11-4.73,7.1l-1.56-2.02c2.47-1.75,4.15-4.37,4.85-6.12h-3.58v-2.11h5.02v-3.7h-2.4c-.43,1.37-1.13,3-1.13,3l-1.9-1.49s1.44-2.69,2.04-6.62l2.11.53c-.22.86-.43,1.85-.67,2.57h1.94v-3.65h2.28v3.65h4.25v2.02h-4.25v3.7h5.06v2.11h-3.67c.55,1.51,1.94,4.03,4.1,5.98l-1.68,2.16Z"/>
      <path class="cls-1" d="m151.35,24.01c-2.74-4.32-3.22-8.98-3.65-12.53h-11.95v-2.16h11.79c-.1-1.51-.14-3.1-.14-4.8h2.42c0,1.75.12,3.34.12,4.8h6.53v2.16h-6.36c.46,4.92,1.32,7.75,3,10.82.74,1.37.94,1.13,1.99-2.74l1.87,2.06c-1.7,5.38-4.01,4.92-5.62,2.38Zm-4.32-.89s-4.82,1.27-10.25,1.97l-.67-2.21c1.51-.14,2.98-.36,4.46-.62v-5.45h-3.6v-2.16h9.62v2.16h-3.67v5.04c2.54-.5,4.27-1.01,4.27-1.01l-.17,2.28Zm6.91-14.11s-1.3-1.82-2.95-3.17l1.61-1.22c1.7,1.39,3.05,3,3.05,3l-1.7,1.39Z"/>
      <path class="cls-1" d="m180.12,12.78c-3.94-1.51-8.26-4.32-9.84-6.19-1.61,2.09-6,5.09-9.91,6.48l-1.08-2.35c5.21-1.68,8.91-4.54,9.94-6.29h1.9c1.22,1.58,4.44,3.98,10.06,6.05l-1.06,2.3Zm-1.99,13.32c-.58-.74-1.1-1.42-1.66-2.02-4.3.77-9.82,1.2-15,1.42l-.43-2.21c.74,0,1.37-.05,2.04-.05,1.78-1.66,3.07-3.67,3.74-4.9h-6.12v-2.09h19.03v2.09h-10.1c-.62,1.32-1.9,3.19-3.41,4.78,4.34-.22,6.91-.58,8.59-.84-1.06-1.2-2.26-2.14-2.26-2.14l1.92-1.3s2.5,2.09,5.33,5.28l-1.68,1.97Zm-13.8-12.39v-2.06h12.41v2.06h-12.41Z"/>
      <path class="cls-1" d="m192.51,18.38c-1.01-.89-1.85-1.94-2.38-2.59v10.34h-2.3v-9.53c-.77.74-2.04,1.78-3.38,2.52l-1.03-2.09c5.74-3.12,7.44-6.67,7.44-6.67h-6.17v-2.16h3.14v-3.67h2.3v3.67h3.12v2.14s-.74,1.63-2.52,3.72c.65.65,1.92,1.49,3.19,2.33l-1.42,1.99Zm.05,6.6v-2.16h5.33v-8.83h-4.1v-2.16h4.1v-7.32h2.3v7.32h4.37v2.16h-4.37v8.83h4.85v2.16h-12.48Z"/>
    </g>
  </g>
</svg>